<?xml version="1.0" encoding="UTF-8" standalone="no"?>
<svg
   xmlns:dc="http://purl.org/dc/elements/1.1/"
   xmlns:cc="http://creativecommons.org/ns#"
   xmlns:rdf="http://www.w3.org/1999/02/22-rdf-syntax-ns#"
   xmlns:svg="http://www.w3.org/2000/svg"
   xmlns="http://www.w3.org/2000/svg"
   xmlns:sodipodi="http://sodipodi.sourceforge.net/DTD/sodipodi-0.dtd"
   xmlns:inkscape="http://www.inkscape.org/namespaces/inkscape"
   version="1.1"
   id="Layer_1"
   x="0px"
   y="0px"
   viewBox="0 0 2674 1328.5"
   enable-background="new 0 0 2674 1328.5"
   sodipodi:docname="blood-pressure.svg"
   inkscape:version="0.92.5 (2060ec1f9f, 2020-04-08)"
   inkscape:export-filename="/home/runar/Prosjekter/blood-app/frontend/src/assets/blood-pressure.png"
   inkscape:export-xdpi="18.75"
   inkscape:export-ydpi="18.75">
  <metadata
     id="metadata9">
    <rdf:RDF>
      <cc:Work
         rdf:about="">
        <dc:format>image/svg+xml</dc:format>
        <dc:type
           rdf:resource="http://purl.org/dc/dcmitype/StillImage" />
      </cc:Work>
    </rdf:RDF>
  </metadata>
  <defs
     id="defs7" />
  <sodipodi:namedview
     pagecolor="#ffffff"
     bordercolor="#666666"
     borderopacity="1"
     objecttolerance="10"
     gridtolerance="10"
     guidetolerance="10"
     inkscape:pageopacity="0"
     inkscape:pageshadow="2"
     inkscape:window-width="1920"
     inkscape:window-height="1016"
     id="namedview5"
     showgrid="false"
     inkscape:zoom="0.48500023"
     inkscape:cx="1334.9381"
     inkscape:cy="664.25"
     inkscape:window-x="0"
     inkscape:window-y="27"
     inkscape:window-maximized="1"
     inkscape:current-layer="Layer_1" />
  <path
     fill="none"
     stroke="#EE1C24"
     stroke-width="41.25"
     stroke-linejoin="round"
     stroke-miterlimit="10"
     d="M57,687.5h277.3 l49.3-178.7l116,770.7l100-1228L669,806.2l70.7-116l428.4-0.5C997.2,535.3,876.3,379.1,912,225.5 c25.9-111.6,108.1-168.8,203.8-175.1c6.6-0.4,13.1-0.7,19.5-0.7c96.2,0,162.2,49.1,200.9,124.9c37-72.6,101.7-125.7,192.7-125.7 c8.6,0,17.5,0.5,26.6,1.5c104.7,11.3,180.7,71,204.9,165.2c38.1,148.5-75.8,315.2-251.5,474.4l460.1,1.5l65.3,118.7l73.3-738.7 l97.3,1196l116-752l48,170.7h248"
     id="path2" />
  <text
     xml:space="preserve"
     style="font-style:normal;font-variant:normal;font-weight:normal;font-stretch:normal;font-size:196.57254028px;line-height:125%;font-family:'Indie Flower';-inkscape-font-specification:'Indie Flower, Normal';font-variant-ligatures:normal;font-variant-caps:normal;font-variant-numeric:normal;font-feature-settings:normal;text-align:center;letter-spacing:0px;word-spacing:0px;writing-mode:lr-tb;text-anchor:middle;fill:#000000;fill-opacity:1;stroke:none;stroke-width:2.4571569px;stroke-linecap:butt;stroke-linejoin:miter;stroke-opacity:1"
     x="2186.0078"
     y="694.85797"
     id="text821"
     transform="scale(0.61232023,1.6331324)"><tspan
       sodipodi:role="line"
       id="tspan819"
       x="2186.0078"
       y="694.85797"
       style="stroke-width:2.4571569px">BLOOD PRESSURE</tspan></text>
</svg>
